<svg viewBox="0 0 100 100" version="1.1" xmlns="http://www.w3.org/2000/svg" xmlns:xlink="http://www.w3.org/1999/xlink">
    <title>YouTube</title>
    <g class="svg-icon" id="social-yt" fill="#FFFFFF">
        <path d="m41.493717,62.366579l0,-24.733202l21.738282,12.367192l-21.738282,12.36601zm48.354444,-32.515602c-0.956484,-3.601939 -3.7749,-6.438312 -7.35321,-7.40094c-6.486042,-1.749459 -32.49495,-1.749459 -32.49495,-1.749459c0,0 -26.008767,0 -32.494998,1.749459c-3.578452,0.962628 -6.396886,3.799001 -7.35329,7.40094c-1.73799,6.528242 -1.73799,20.149024 -1.73799,20.149024c0,0 0,13.620593 1.73799,20.149071c0.956404,3.601891 3.774838,6.438236 7.35329,7.401285c6.486231,1.749067 32.494998,1.749067 32.494998,1.749067c0,0 26.008909,0 32.49495,-1.749067c3.57831,-0.963048 6.396726,-3.799393 7.35321,-7.401285c1.738117,-6.528479 1.738117,-20.149071 1.738117,-20.149071c0,0 0,-13.620782 -1.738117,-20.149024"></path>
    </g>
</svg>
